Coordinates
version=1
nRows=19
nColumns=36
inDegrees=yes

Units are S.I. units (second, meters, Newtons, ...)
If the header above contains a line with 'inDegrees', this indicates whether rotational values are in degrees (yes) or radians (no).

endheader
time	pelvis_tilt	pelvis_list	pelvis_rotation	pelvis_tx	pelvis_ty	pelvis_tz	hip_flexion_r	hip_adduction_r	hip_rotation_r	knee_angle_r	knee_angle_r_beta	ankle_angle_r	subtalar_angle_r	mtp_angle_r	hip_flexion_l	hip_adduction_l	hip_rotation_l	knee_angle_l	knee_angle_l_beta	ankle_angle_l	subtalar_angle_l	mtp_angle_l	lumbar_extension	lumbar_bending	lumbar_rotation	arm_flex_r	arm_add_r	arm_rot_r	elbow_flex_r	pro_sup_r	arm_flex_l	arm_add_l	arm_rot_l	elbow_flex_l	pro_sup_l
      8.70000000	    -11.41641238	     -0.93740185	     -0.68501409	      0.71308794	      0.91383527	      0.05512811	     30.16735899	     -2.69012274	     -1.81877088	     27.37662231	      0.47781220	      7.17422019	     -5.90204929	     -7.49999987	     16.77772049	      1.83107895	     -3.80294684	     12.29922977	      0.21466205	     20.44257651	     11.15181606	     -7.49999987	     17.14404446	    -11.41206242	      5.35511202	     24.42253319	      0.13695860	     59.54228812	    110.01726446	     83.61800632	     35.52971781	     -5.53287759	     67.64131332	    106.97721024	     84.04902380
      8.71666670	    -11.25032085	     -0.94761056	     -0.96890604	      0.71266812	      0.92230400	      0.05516872	     29.54516394	     -2.54747726	     -2.12072819	     26.35030997	      0.45989967	      6.68183735	     -5.85768844	     -7.49999987	     16.48513577	      1.74300918	     -3.64704838	     11.85476994	      0.20690477	     20.18776246	     11.11289252	     -7.49999987	     16.85611115	    -11.26893178	      5.31374491	     24.02829244	      0.07693408	     60.10460069	    109.50099606	     82.66141090	     35.15773510	     -5.81873511	     68.72533167	    107.01270020	     83.11071110
      8.73333330	    -11.59188375	     -0.87685357	     -1.07957909	      0.69079932	      0.91405462	      0.06311479	     30.04712295	     -2.44326431	     -2.38565067	     25.97659294	      0.45337708	      6.16174702	     -5.89237728	     -7.49999987	     17.45507113	      1.68476081	     -3.67786195	     12.12041757	      0.21154119	     20.05161771	     11.28950743	     -7.49999987	     16.83524333	    -11.45926016	      5.06122083	     24.67293360	      0.41238395	     59.91627485	    108.77468535	     82.65161582	     36.09311567	     -5.93380477	     69.68375096	    107.59194687	     83.22094486
      8.75000000	    -11.63614516	     -0.88858278	     -1.29530492	      0.69217942	      0.91446864	      0.06364431	     30.20906598	     -2.28114611	     -2.62557500	     25.78401629	      0.45001598	      6.05751196	     -5.95583270	     -7.49999987	     17.90587767	      1.50705621	     -3.82594071	     12.19519870	      0.21284637	     19.77971133	     11.34161180	     -7.49999987	     16.65414913	    -11.37992941	      5.00160652	     24.82357295	      0.18021371	     59.76715720	    108.74985156	     82.67708299	     36.16684631	     -6.16878888	     69.82596774	    107.56232354	     83.27832781
      8.76666670	    -11.81082712	     -1.06607123	     -1.38911787	      0.69124491	      0.91684484	      0.06325909	     30.22442038	     -1.99625416	     -3.02933681	     25.52975836	      0.44557834	      5.97634265	     -5.86887162	     -7.49999987	     18.48296568	      1.19040500	     -3.88305517	     12.34607499	      0.21547966	     19.56666746	     11.45223547	     -7.49999987	     16.80603727	    -11.07437970	      5.10298687	     24.29477192	      0.01590652	     59.70822842	    108.78971384	     82.18411038	     35.57450207	     -6.33950030	     70.08045931	    107.27320395	     82.82517779
      8.78333330	    -11.77186979	     -1.13465075	     -1.57454815	      0.68320500	      0.92064044	      0.06529491	     30.14385821	     -1.84395965	     -3.46685698	     25.82016644	      0.45064692	      5.98396734	     -5.99515177	     -7.49999987	     18.88362421	      0.94745570	     -4.13142413	     12.52359035	      0.21857789	     19.26925726	     11.44454926	     -7.49999987	     16.48770891	    -10.92558025	      5.24350702	     23.86618733	     -0.15647721	     59.81850316	    108.71667667	     82.22813996	     35.40087317	     -6.55192352	     70.01863028	    107.04180851	     82.87246617
      8.80000000	    -11.95742414	     -1.29283422	     -1.82768786	      0.67735405	      0.91389150	      0.06218528	     30.29997336	     -1.59734872	     -3.96733764	     26.61692902	      0.46455305	      6.03751627	     -6.32679539	     -7.49999987	     19.59160086	      0.60914446	     -4.52250094	     12.90991083	      0.22532045	     19.22357865	     11.58829387	     -7.49999987	     16.64233650	    -10.58019905	      5.21964583	     23.68252816	     -0.67189165	     60.17252821	    110.03278171	     82.23019831	     35.23410516	     -5.96212720	     69.27461109	    106.46372910	     82.80743263
      8.81666670	    -12.08591764	     -1.57557433	     -2.14492344	      0.67831551	      0.91124934	      0.06217351	     30.25948781	     -1.15167547	     -4.22591622	     28.27256969	      0.49344943	      6.34169070	     -6.83001677	     -7.49999987	     20.52527851	      0.11382203	     -5.30407474	     13.72291209	      0.23951000	     19.29507964	     11.86248661	     -7.49999987	     16.73752061	    -10.08118819	      5.18589053	     23.46138846	     -1.09799451	     60.96515869	    111.61763779	     82.53463627	     35.49023818	     -5.26234102	     69.24064373	    106.30955305	     83.10874865
      8.83333330	    -12.09357313	     -1.71133765	     -2.45417542	      0.66910875	      0.91060156	      0.06388311	     30.22934401	     -0.88178718	     -4.54438706	     30.25243549	      0.52800461	      6.83198336	     -7.38281597	     -7.49999987	     20.96204846	     -0.11786035	     -5.73772078	     13.85910803	      0.24188707	     19.20948572	     11.78511503	     -7.49999987	     16.58327807	     -9.65884799	      4.92305092	     23.35572269	     -1.11152055	     61.28154539	    112.08959629	     82.59571370	     35.96317819	     -5.05909703	     69.10484673	    106.19680506	     83.16230322
      8.85000000	    -11.95478356	     -1.83114567	     -2.79976400	      0.66860384	      0.91363524	      0.06351920	     29.99285145	     -0.69210962	     -5.00026792	     32.62432117	      0.56940182	      7.19392318	     -8.06043157	     -7.49999987	     21.13905387	     -0.36133855	     -6.47686788	     14.10345120	      0.24615166	     19.04435668	     11.50827488	     -7.49999987	     16.36605500	     -9.17952930	      4.88800189	     23.22823728	     -1.32341733	     61.92391969	    112.63788769	     82.70800184	     36.08189607	     -4.86822320	     68.99817877	    105.88897749	     83.23009589
      8.86666670	    -11.66332263	     -1.82426752	     -3.16943620	      0.66851711	      0.91427312	      0.06377779	     29.75271337	     -0.67530850	     -5.34319999	     35.38554231	      0.61759422	      7.24585722	     -8.80890915	     -7.49999987	     21.12640205	     -0.39579073	     -7.11718960	     14.30860739	      0.24973231	     18.72488682	     11.07675578	     -7.49999987	     16.22164195	     -8.70193271	      5.33532207	     22.96108125	     -1.65601628	     62.47239499	    112.73300603	     82.92058584	     35.44398019	     -4.88454041	     69.32152725	    105.81415665	     83.35589914
      8.88333330	    -11.29097330	     -1.90119754	     -3.35737072	      0.66834581	      0.91493778	      0.06393858	     28.98575357	     -0.54995039	     -5.83223008	     37.36945112	      0.65221996	      7.41655838	     -9.41200180	     -7.49999987	     20.75838374	     -0.37983398	     -7.24634075	     13.97592968	      0.24392599	     18.19170281	     10.30439685	     -7.49999987	     15.89512853	     -8.12159579	      5.75002816	     22.66673916	     -1.79157500	     62.38853969	    112.77436544	     89.45309026	     34.88410629	     -4.60824565	     69.99275887	    105.95395396	     87.71725959
      8.90000000	    -10.80847610	     -1.97790195	     -3.58201955	      0.66662082	      0.91373000	      0.06373601	     27.73663538	     -0.24809963	     -6.21161930	     39.09359271	      0.68231191	      7.73835632	     -9.78828507	     -7.49999987	     20.14875313	     -0.35689432	     -7.29013338	     13.55560351	      0.23658991	     17.55190955	      9.43134691	     -7.49999987	     15.47775813	     -7.64132184	      5.67428043	     22.07339924	     -1.96251776	     62.28308832	    113.00957242	     89.43397753	     34.35282288	     -4.50839454	     70.75116636	    106.72283645	     87.76783760
      8.91666670	    -10.12227444	     -2.00749751	     -3.86229381	      0.66544184	      0.92046757	      0.06371683	     25.79512359	     -0.02922709	     -6.75205998	     40.45588251	      0.70608835	      7.91767591	    -10.19218142	     -7.49999987	     19.21983012	     -0.25190597	     -6.98923944	     13.01388668	      0.22713517	     16.68287146	      8.19736898	     -7.49999987	     14.89022323	     -7.23025170	      5.68238364	     21.03020980	     -2.26008544	     62.18903124	    112.93157767	     89.47397957	     33.42089343	     -4.70387217	     71.52898805	    106.91613321	     87.87868492
      8.93333330	     -9.34125057	     -1.95585932	     -3.90926888	      0.66378810	      0.92238020	      0.06347719	     23.49462582	      0.11306791	     -7.16068194	     41.19420889	      0.71897458	      8.61793551	    -10.41354793	     -7.49999987	     18.18877647	      0.04934687	     -6.18008883	     12.31742541	      0.21497963	     15.75435988	      6.92953220	     -7.49999987	     14.17137709	     -6.95427878	      5.63908767	     19.78792711	     -2.56691147	     61.99893445	    112.90033109	     89.73264607	     32.43653362	     -4.98327456	     71.70583394	    106.57423274	     88.16035677
      8.95000000	     -8.63385396	     -1.82812372	     -3.91853121	      0.65614462	      0.91748367	      0.06688845	     21.03187886	      0.23690039	     -7.53836224	     40.96541015	      0.71498129	      9.36879698	    -10.91606128	     -7.49999987	     17.19774045	      0.36730774	     -5.57963696	     11.45637480	      0.19995146	     14.88695035	      5.87701623	     -7.49999987	     13.51771766	     -6.88335451	      5.65354548	     19.55007982	     -2.94542549	     62.41219425	    113.39174599	     90.34022251	     32.08881768	     -5.17606828	     71.45726360	    106.27556871	     88.71896967
      8.96666670	     -7.90246303	     -1.61960177	     -3.89899488	      0.65633904	      0.90874706	      0.06847617	     18.29298096	      0.34697013	     -7.99790897	     39.60538853	      0.69124443	     10.73025560	    -11.03556733	     -7.49999987	     16.07058659	      0.78294855	     -4.57930177	     10.30968027	      0.17993787	     13.90190869	      4.82726956	     -7.49999987	     12.94233075	     -6.91258630	      5.24239299	     19.21708363	     -2.83538094	     62.75252482	    114.99886184	     91.19984373	     32.05667015	     -5.27136132	     70.53215791	    106.37702136	     89.52441815
      8.98333330	     -7.16574184	     -1.31152871	     -3.83849429	      0.65000886	      0.91332280	      0.06597874	     15.52732378	      0.37194309	     -8.34924479	     37.47069300	      0.65398697	     12.31426429	    -10.86972554	     -7.49999987	     15.24463125	      1.19838719	     -3.67576240	      9.55967460	      0.16684780	     13.06979734	      4.07123138	     -7.49999987	     12.43885646	     -6.88240592	      5.53950263	     19.05762861	     -3.07479617	     63.50969724	    115.94633961	     91.50283528	     31.22195628	     -5.11030341	     69.92675933	    106.58887982	     89.75624149
      9.00000000	     -6.27036359	     -1.05619352	     -3.65515037	      0.64109606	      0.90872801	      0.06888476	     12.70957932	      0.46306553	     -8.70774267	     35.20422593	      0.61442965	     13.66514766	    -10.80784330	     -7.49999987	     14.30274112	      1.54114109	     -2.72268950	      8.81393420	      0.15383217	     12.16492867	      3.34761801	     -7.49999987	     11.36844211	     -6.87738994	      5.60947561	     19.86975161	     -3.18618621	     64.04648595	    116.05528440	     92.61247041	     31.04894254	     -4.71781484	     69.16009482	    106.59348575	     90.78282239
